<svg width="201" height="80" viewBox="0 0 201 80" fill="none" xmlns="http://www.w3.org/2000/svg">
<path d="M37.8 72.3C43 67 45.7 60.7 45.7 53.4V-1.19209e-06H32.2V53.4C32.2 57.1 30.9 60.2 28.2 62.8L34.1 68.7L37.8 72.3ZM9.6 62.7L0 72.3C5.2 77.4 11.5 80 18.9 80V66.6C15.3 66.6 12.2 65.3 9.6 62.7ZM34.1 68.7L37.8 72.3L34.1 68.7ZM109.823 40L141.023 -1.19209e-06H124.123L101.323 29.2L78.6234 -1.19209e-06H61.5234L92.9234 40L61.5234 80H78.6234L101.323 50.8V50.9L109.823 40ZM101.323 50.8L78.6234 80L101.323 50.9V50.8ZM195.672 41.7C198.872 37.2 200.372 32.2 200.372 26.6C200.372 19.3 197.772 13.1 192.572 7.79999C187.372 2.6 181.072 -1.19209e-06 173.772 -1.19209e-06H138.672L145.572 11.9L147.072 13.4H173.772C177.372 13.4 180.472 14.7 183.072 17.3C185.772 19.9 187.072 23 187.072 26.6C187.072 30.3 185.772 33.5 183.072 36.1C180.472 38.7 177.372 40 173.772 40L161.872 39.9L185.072 80H200.372L183.972 51.3C188.672 49.4 192.572 46.2 195.672 41.7Z" fill="white"/>
</svg>
